<svg xmlns="http://www.w3.org/2000/svg" viewBox="0 0 42.877 42.877" xml:space="preserve"><path style="fill:#050206" d="M16.216 22.056a64 64 0 0 1-.317 1.903c-.287 1.619-.559 3.15-.502 4.72.097 2.722 1.85 4.899 4.465 5.548 1.958.488 4.017.368 6.38-.373 5.487-1.719 9.924-5.118 13.564-10.391 2.146-3.106 3.148-6.128 3.066-9.239-.065-2.627-1.68-4.771-4.108-5.463-2.07-.589-4.122-.538-6.476.172q.51.215.953.552c1.734 1.318 2.295 3.258 1.666 5.766-.779 3.1-2.596 5.681-4.236 7.857-.342.453-.744.98-1.192 1.496-.808.926-1.476 1.396-1.99 1.396-.286 0-.583-.131-.772-.346a1.07 1.07 0 0 1-.248-.812l.041-.308c.572-3.674 1.037-6.986.953-10.372-.067-2.744-1.772-4.865-4.45-5.536-1.22-.308-2.504-.344-4.056-.113-1.74.258-3.419.782-5.134 1.602-.576.275-1.08.554-1.499.807 2.166.935 3.581 2.708 4.135 5.208.397 1.788.13 3.513-.128 5.181zM5.269 34.386c1.735.237 3.469.093 5.303-.449a4.9 4.9 0 0 1-1.66-1.233 4.78 4.78 0 0 1-1.143-3.834 13.1 13.1 0 0 1 1.05-3.627c.875-1.965 2.104-3.69 3.293-5.359l.099-.138c1.145-1.607.862-3.648-.687-4.962-.579-.491-1.347-.761-2.162-.761-.991 0-1.969.396-2.686 1.086-1.464 1.41-2.607 2.747-3.496 4.086-2.29 3.45-3.269 6.34-3.174 9.367.098 3.11 2.164 5.397 5.263 5.824"/></svg>